# xmcd
#
# Track frame offsets:
# 150
# 9320
# 18785
# 32637
# 42214
# 52471
# 61909
# 71543
# 81314
# 89892
#
# Disc length: 1301 seconds
#
#
# Revision: 0
# Processed by: cddbd v1.5.2PL0 Copyright (c) Steve Scherf et al.
# Submitted via: FreeRIP 2.945 
#
DISCID=8105130a
DTITLE=Buck Owens and Susan Raye - Buck Owens and Susan Raye -  Merry Christmas From Buck and Susan
DYEAR=1900
DGENRE=Country
TTITLE0=One Of Everything You Got
TTITLE1=Home On Christmas Day
TTITLE2=All I Want For Christmas Is My Daddy
TTITLE3=A Very Merry Christmas
TTITLE4=Its Not What You Give
TTITLE5=Good Old Fashioned Country Christmas
TTITLE6=Christmas Ain't Christmas Dear Witho
TTITLE7=Santa Looked A Lot Like Daddy
TTITLE8=Santas Gonna Come In A Stagecoach
TTITLE9=Tomorrow Is Christmas Day
EXTD=
EXTT0=
EXTT1=
EXTT2=
EXTT3=
EXTT4=
EXTT5=
EXTT6=
EXTT7=
EXTT8=
EXTT9=
PLAYORDER=
